Patient4_TMGait_0pt2_02_left_03_GRF.mot
version=1
nRows=78
nColumns=19
inDegrees=no
endheader
time	F1x	F1y	F1z	M1x	M1y	M1z	F2x	F2y	F2z	M2x	M2y	M2z	EC1x	EC1y	EC1z	EC2x	EC2y	EC2z
6.52	4.8879	20.2101	1.8579	-5.5407	-0.5736	16.8553	-30.3091	807.9923	-55.071	306.5446	68.8467	812.5097	-0.0592	0.0182	-0.0073	-0.0462	0.0165	0.9585
6.5426	3.4907	14.6533	1.4107	-4.039	-0.49685	12.3916	-28.2849	825.2534	-56.3673	312.6864	69.1351	827.2953	-0.0592	0.0182	-0.0073	-0.0462	0.0165	0.9585
6.5651	2.1896	9.4958	0.97537	-2.6374	-0.4107	8.2001	-26.1461	841.4499	-57.2676	318.4038	68.8876	840.6652	-0.0592	0.0182	-0.0073	-0.0462	0.0165	0.9585
6.5877	1.1223	5.2627	0.60713	-1.4817	-0.33135	4.7303	-24.033	853.844	-57.5691	322.7212	67.969	850.0742	-0.0592	0.0182	-0.0073	-0.0462	0.0165	0.9585
6.6103	0.33016	2.1339	0.32965	-0.62299	-0.2701	2.1472	-22.0406	860.2298	-57.1901	324.8538	66.3568	853.5035	-0.0592	0.0182	-0.0073	-0.0462	0.0165	0.9585
6.6329	-0.20076	0.043504	0.1435	-0.045146	-0.23129	0.40955	-20.1992	859.3679	-56.1639	324.3591	64.1216	849.8465	-0.0592	0.0182	-0.0073	-0.0462	0.0165	0.9585
6.6554	-0.51355	-1.2079	0.036517	0.30296	-0.21625	-0.63613	-18.4786	851.2087	-54.6061	321.2196	61.3905	839.1016	-0.0592	0.0182	-0.0073	-0.0462	0.0165	0.9585
6.678	-0.66328	-1.8623	-0.008923	0.48649	-0.22369	-1.1913	-16.8133	836.8948	-52.6744	315.8517	58.3159	822.3777	-0.0592	0.0182	-0.0073	-0.0462	0.0165	0.9585
6.7006	-0.70588	-2.1581	-0.012297	0.57375	-0.249	-1.4645	-15.1285	818.489	-50.5461	309.0132	55.0628	801.6361	-0.0592	0.0182	-0.0073	-0.0462	0.0165	0.9585
6.7231	-0.68949	-2.31	0.0092536	0.6267	-0.28423	-1.6469	-13.358	798.5427	-48.391	301.6458	51.7849	779.2946	-0.0592	0.0182	-0.0073	-0.0462	0.0165	0.9585
6.7457	-0.65279	-2.4939	0.04067	0.69786	-0.32043	-1.8934	-11.445	779.5781	-46.345	294.6834	48.5949	757.7406	-0.0592	0.0182	-0.0073	-0.0462	0.0165	0.9585
6.7683	-0.62344	-2.843	0.065378	0.82701	-0.34657	-2.3187	-9.3558	763.6206	-44.5029	288.8783	45.5667	738.8886	-0.0592	0.0182	-0.0073	-0.0462	0.0165	0.9585
6.7909	-0.61325	-3.4352	0.067182	1.0359	-0.34755	-2.9886	-7.0738	751.9011	-42.9102	284.6885	42.7313	723.9021	-0.0592	0.0182	-0.0073	-0.0462	0.0165	0.9585
6.8134	-0.61748	-4.2766	0.028265	1.3238	-0.3035	-3.9044	-4.589	744.7592	-41.5677	282.2378	40.0771	713.1048	-0.0592	0.0182	-0.0073	-0.0462	0.0165	0.9585
6.836	-0.61858	-5.2809	-0.071019	1.6608	-0.19257	-4.9746	-1.9152	741.7453	-40.4621	281.3498	37.5877	706.0915	-0.0592	0.0182	-0.0073	-0.0462	0.0165	0.9585
6.8586	-0.58792	-6.245	-0.24796	1.9769	0.007631	-5.9893	0.89293	741.8629	-39.6043	281.6389	35.2872	701.9651	-0.0592	0.0182	-0.0073	-0.0462	0.0165	0.9585
6.8811	-0.48762	-6.8079	-0.51099	2.1477	0.31687	-6.5828	3.7552	743.882	-39.0262	282.63	33.2338	699.6248	-0.0592	0.0182	-0.0073	-0.0462	0.0165	0.9585
6.9037	-0.27455	-6.4135	-0.85732	1.9848	0.74618	-6.2024	6.6018	746.6099	-38.7471	283.8632	31.4782	698.0134	-0.0592	0.0182	-0.0073	-0.0462	0.0165	0.9585
6.9263	0.091774	-4.3003	-1.268	1.2318	1.2893	-4.0847	9.3736	749.0154	-38.7628	284.9385	30.0471	696.2286	-0.0592	0.0182	-0.0073	-0.0462	0.0165	0.9585
6.9489	0.65069	0.47923	-1.694	-0.42755	1.9091	0.73283	11.9976	750.19	-39.0494	285.5013	28.9504	693.4887	-0.0592	0.0182	-0.0073	-0.0462	0.0165	0.9585
6.9714	1.4274	8.975	-2.0405	-3.3403	2.5153	9.3263	14.3846	749.2444	-39.5585	285.2097	28.1839	689.0332	-0.0592	0.0182	-0.0073	-0.0462	0.0165	0.9585
6.994	2.408	22.1558	-2.1487	-7.8211	2.9394	22.6998	16.4369	745.2548	-40.1939	283.7154	27.7066	682.0707	-0.0592	0.0182	-0.0073	-0.0462	0.0165	0.9585
7.0166	3.4982	40.6005	-1.7873	-14.0493	2.9104	41.4703	18.0529	737.2696	-40.8074	280.6684	27.4355	671.7909	-0.0592	0.0182	-0.0073	-0.0462	0.0165	0.9585
7.0391	4.3825	64.1488	-0.68553	-21.9513	2.0401	65.4958	19.1524	724.3963	-41.2184	275.7485	27.2515	657.434	-0.0592	0.0182	-0.0073	-0.0462	0.0165	0.9585
7.0617	4.6048	91.6643	1.3659	-31.1268	-0.043147	93.6359	19.7114	705.9903	-41.2545	268.7297	27.0173	638.4496	-0.0592	0.0182	-0.0073	-0.0462	0.0165	0.9585
7.0843	4.0296	121.5149	4.2615	-41.0276	-3.2693	124.1983	19.7783	681.9352	-40.8114	259.58	26.6195	614.7337	-0.0592	0.0182	-0.0073	-0.0462	0.0165	0.9585
7.1069	2.7807	152.4844	7.606	-51.2709	-7.1799	155.8615	19.4696	652.8316	-39.8891	248.5311	26.0028	586.7979	-0.0592	0.0182	-0.0073	-0.0462	0.0165	0.9585
7.1294	1.082	184.0051	11.0218	-61.6972	-11.3061	187.9604	18.937	619.8914	-38.5552	236.0432	25.1537	555.6838	-0.0592	0.0182	-0.0073	-0.0462	0.0165	0.9585
7.152	-0.85349	216.0117	14.2868	-72.3039	-15.3458	220.3565	18.3234	584.6472	-36.9146	222.6966	24.0942	522.7164	-0.0592	0.0182	-0.0073	-0.0462	0.0165	0.9585
7.1746	-2.8292	248.5799	17.3431	-83.1179	-19.175	253.0717	17.7237	548.5724	-35.1004	209.0464	22.8878	489.1761	-0.0592	0.0182	-0.0073	-0.0462	0.0165	0.9585
7.1971	-4.661	281.593	20.2259	-94.0855	-22.771	285.9622	17.1733	512.7782	-33.2506	195.5068	21.626	456.0375	-0.0592	0.0182	-0.0073	-0.0462	0.0165	0.9585
7.2197	-6.1868	314.6346	22.9727	-105.0452	-26.121	318.6061	16.6643	477.9138	-31.4703	182.3151	20.3936	423.8761	-0.0592	0.0182	-0.0073	-0.0462	0.0165	0.9585
7.2423	-7.2818	347.0653	25.5715	-115.7628	-29.174	350.3667	16.1617	444.2327	-29.8085	169.562	19.2455	392.9191	-0.0592	0.0182	-0.0073	-0.0462	0.0165	0.9585
7.2649	-7.8756	378.2044	27.9539	-125.9963	-31.8417	380.5821	15.6191	411.7659	-28.2581	157.258	18.1949	363.199	-0.0592	0.0182	-0.0073	-0.0462	0.0165	0.9585
7.2874	-7.9677	407.4919	30.0282	-135.5507	-34.0343	408.742	14.9962	380.4933	-26.7756	145.3966	17.2258	334.7064	-0.0592	0.0182	-0.0073	-0.0462	0.0165	0.9585
7.31	-7.6225	434.5555	31.7245	-144.2978	-35.7022	434.5409	14.2695	350.4348	-25.3066	133.9866	16.3098	307.4589	-0.0592	0.0182	-0.0073	-0.0462	0.0165	0.9585
7.3326	-6.9448	459.1979	33.0242	-152.1703	-36.857	457.8526	13.4414	321.6788	-23.8061	123.0637	15.413	281.5216	-0.0592	0.0182	-0.0073	-0.0462	0.0165	0.9585
7.3551	-6.0667	481.3605	33.9561	-159.1465	-37.5647	478.6913	12.5267	294.3697	-22.2495	112.6849	14.5111	257.0017	-0.0592	0.0182	-0.0073	-0.0462	0.0165	0.9585
7.3777	-5.132	501.0928	34.5796	-165.2407	-37.9231	497.1845	11.545	268.6568	-20.6312	102.908	13.593	234.012	-0.0592	0.0182	-0.0073	-0.0462	0.0165	0.9585
7.4003	-4.2604	518.5248	34.9654	-170.4967	-38.0318	513.5306	10.5304	244.6588	-18.9677	93.7774	12.6585	212.6415	-0.0592	0.0182	-0.0073	-0.0462	0.0165	0.9585
7.4229	-3.5292	533.8479	35.1839	-174.9823	-37.9791	527.969	9.5299	222.4722	-17.2963	85.3264	11.7179	192.9598	-0.0592	0.0182	-0.0073	-0.0462	0.0165	0.9585
7.4454	-2.9793	547.2959	35.2977	-178.7856	-37.8394	540.7625	8.5837	202.191	-15.6667	77.5873	10.7908	175.0389	-0.0592	0.0182	-0.0073	-0.0462	0.0165	0.9585
7.468	-2.6293	559.1584	35.3712	-182.0167	-37.684	552.2092	7.7152	183.9092	-14.1321	70.5948	9.9046	158.9493	-0.0592	0.0182	-0.0073	-0.0462	0.0165	0.9585
7.4906	-2.4995	569.8707	35.4852	-184.8347	-37.5979	562.7256	6.9388	167.7039	-12.7459	64.3798	9.0933	144.7434	-0.0592	0.0182	-0.0073	-0.0462	0.0165	0.9585
7.5131	-2.6144	580.1207	35.7378	-187.4807	-37.6811	572.952	6.2656	153.5932	-11.5534	58.9528	8.3888	132.4134	-0.0592	0.0182	-0.0073	-0.0462	0.0165	0.9585
7.5357	-2.9938	590.8681	36.2336	-190.2824	-38.0355	583.7788	5.6951	141.4692	-10.5805	54.2767	7.811	121.8475	-0.0592	0.0182	-0.0073	-0.0462	0.0165	0.9585
7.5583	-3.6476	603.2769	37.0704	-193.6291	-38.7539	596.2778	5.21	131.0206	-9.8184	50.2361	7.357	112.7637	-0.0592	0.0182	-0.0073	-0.0462	0.0165	0.9585
7.5809	-4.5544	618.6073	38.3296	-197.9361	-39.9087	611.6026	4.7672	121.734	-9.2212	46.6382	7.0037	104.7087	-0.0592	0.0182	-0.0073	-0.0462	0.0165	0.9585
7.6034	-5.6448	637.9919	40.0657	-203.5683	-41.5307	630.7758	4.291	112.9932	-8.722	43.2503	6.7231	97.1463	-0.0592	0.0182	-0.0073	-0.0462	0.0165	0.9585
7.626	-6.8138	662.1292	42.2984	-210.7438	-43.6017	654.3928	3.684	104.174	-8.2563	39.8364	6.4975	89.5346	-0.0592	0.0182	-0.0073	-0.0462	0.0165	0.9585
7.6486	-7.9358	691.0047	44.9988	-219.4512	-46.0507	682.3614	2.8588	94.7508	-7.7694	36.1976	6.3164	81.4163	-0.0592	0.0182	-0.0073	-0.0462	0.0165	0.9585
7.6711	-8.8878	723.7159	48.0707	-229.3944	-48.7473	713.7419	1.7783	84.4133	-7.2173	32.2168	6.1612	72.5231	-0.0592	0.0182	-0.0073	-0.0462	0.0165	0.9585
7.6937	-9.5834	758.4332	51.3567	-239.9817	-51.5171	746.7247	0.48091	73.1356	-6.5697	27.8867	5.9976	62.8361	-0.0592	0.0182	-0.0073	-0.0462	0.0165	0.9585
7.7163	-9.9889	792.4908	54.6511	-250.3566	-54.1586	778.7238	-0.90778	61.1826	-5.8121	23.3104	5.7709	52.5865	-0.0592	0.0182	-0.0073	-0.0462	0.0165	0.9585
7.7389	-10.1015	822.6973	57.7219	-259.5002	-56.4592	806.6683	-2.1838	49.046	-4.9485	18.6772	5.4126	42.1962	-0.0592	0.0182	-0.0073	-0.0462	0.0165	0.9585
7.7614	-9.9107	845.8904	60.3315	-266.4139	-58.2027	827.5246	-3.1106	37.3375	-4.0027	14.2191	4.8601	32.1854	-0.0592	0.0182	-0.0073	-0.0462	0.0165	0.9585
7.784	-9.389	859.5511	62.2625	-270.3216	-59.1907	838.8849	-3.493	26.6696	-3.025	10.1663	4.0884	23.074	-0.0592	0.0182	-0.0073	-0.0462	0.0165	0.9585
7.8066	-8.506	862.3986	63.3442	-270.8554	-59.27	839.5245	-3.2719	17.5681	-2.0913	6.7145	3.144	15.3044	-0.0592	0.0182	-0.0073	-0.0462	0.0165	0.9585
7.8291	-7.2287	854.7647	63.4719	-268.168	-58.3515	829.7469	-2.6282	10.3863	-1.2833	3.9935	2.1635	9.1683	-0.0592	0.0182	-0.0073	-0.0462	0.0165	0.9585
7.8517	-5.5063	838.5812	62.6211	-262.9183	-56.4145	811.3571	-1.8311	5.1334	-0.64771	2.0045	1.285	4.6623	-0.0592	0.0182	-0.0073	-0.0462	0.0165	0.9585
7.8743	-3.2701	816.9661	60.8702	-256.1287	-53.5252	787.2737	-1.0521	1.4907	-0.18526	0.62598	0.56949	1.4966	-0.0592	0.0182	-0.0073	-0.0462	0.0165	0.9585
7.8969	-0.46843	793.5215	58.4061	-248.9555	-49.8526	760.8796	-0.37544	-1.01	0.13008	-0.32072	0.021908	-0.74765	-0.0592	0.0182	-0.0073	-0.0462	0.0165	0.9585
7.9194	2.9279	771.6399	55.4867	-242.47	-45.6308	735.3692	0.17327	-2.852	0.33717	-1.0212	-0.38693	-2.4967	-0.0592	0.0182	-0.0073	-0.0462	0.0165	0.9585
7.942	6.9183	753.9687	52.3898	-237.4953	-41.1111	713.2501	0.60322	-4.4385	0.47416	-1.6305	-0.69606	-4.0991	-0.0592	0.0182	-0.0073	-0.0462	0.0165	0.9585
7.9646	11.4544	742.049	49.3739	-234.4938	-36.5338	696.0238	0.93768	-6.0256	0.5729	-2.2473	-0.9374	-5.7609	-0.0592	0.0182	-0.0073	-0.0462	0.0165	0.9585
7.9871	16.4286	736.1563	46.6634	-233.5152	-32.1208	684.0577	1.199	-7.665	0.65379	-2.8921	-1.1297	-7.4915	-0.0592	0.0182	-0.0073	-0.0462	0.0165	0.9585
8.0097	21.6822	735.3758	44.4427	-234.2194	-28.071	676.6569	1.3962	-9.1447	0.71916	-3.4838	-1.2742	-9.0457	-0.0592	0.0182	-0.0073	-0.0462	0.0165	0.9585
8.0323	27.022	737.9052	42.8514	-235.9739	-24.5563	672.3414	1.5147	-9.9266	0.74946	-3.817	-1.3426	-9.852	-0.0592	0.0182	-0.0073	-0.0462	0.0165	0.9585
8.0549	32.2237	741.4519	41.9786	-237.9836	-21.7182	669.2053	1.5091	-9.094	0.70133	-3.539	-1.27	-8.9576	-0.0592	0.0182	-0.0073	-0.0462	0.0165	0.9585
8.0774	37.0496	743.5961	41.8558	-239.4127	-19.6588	665.2443	1.2973	-5.333	0.5063	-2.1403	-0.94978	-5.0084	-0.0592	0.0182	-0.0073	-0.0462	0.0165	0.9585
8.1	41.2735	742.1061	42.4444	-239.4936	-18.4228	658.6238	0.76244	3.03	0.071726	1.0327	-0.23679	3.7096	-0.0592	0.0182	-0.0073	-0.0462	0.0165	0.9585
8.1226	44.683	735.1134	43.6116	-237.5938	-17.9783	647.828	-0.23406	17.8808	-0.70851	6.7209	1.0396	19.1182	-0.0592	0.0182	-0.0073	-0.0462	0.0165	0.9585
8.1451	47.078	721.1334	45.1016	-233.2286	-18.1885	631.6605	-1.8345	40.9933	-1.9341	15.6291	3.0462	43.0152	-0.0592	0.0182	-0.0073	-0.0462	0.0165	0.9585
8.1677	48.2929	699.0428	46.5382	-226.0534	-18.8051	609.2131	-4.1703	73.494	-3.6755	28.2193	5.9103	76.51	-0.0592	0.0182	-0.0073	-0.0462	0.0165	0.9585
8.1903	48.2123	668.1765	47.5074	-215.8851	-19.5315	579.9617	-7.4675	115.3641	-6.0684	44.5029	9.858	119.5291	-0.0592	0.0182	-0.0073	-0.0462	0.0165	0.9585
8.2129	46.7677	628.5494	47.6787	-202.7602	-20.1232	543.9625	-11.8977	164.9593	-9.4998	63.8246	15.3515	170.359	-0.0592	0.0182	-0.0073	-0.0462	0.0165	0.9585
8.2354	43.9694	581.1727	46.8811	-187.0344	-20.4397	502.1027	-17.118	218.5989	-14.2547	84.7124	22.5335	225.2037	-0.0592	0.0182	-0.0073	-0.0462	0.0165	0.9585
8.258	40.0279	528.5062	45.1171	-169.5346	-20.4177	456.4443	-22.4319	271.983	-19.9535	105.4819	30.7264	279.6223	-0.0592	0.0182	-0.0073	-0.0462	0.0165	0.9585
